<svg width="319" height="60" viewBox="0 0 319 60" fill="none" xmlns="http://www.w3.org/2000/svg">
<circle cx="30" cy="30" r="29" transform="matrix(-1 0 0 1 60 0)" stroke="white" stroke-width="2"/>
<path d="M33.0323 30C33.0323 46.0012 46.2175 59 62.5161 59C78.8148 59 92 46.0012 92 30C92 13.9988 78.8148 1 62.5161 1C46.2175 1 33.0323 13.9988 33.0323 30Z" stroke="white" stroke-width="2"/>
<path d="M66.0323 30C66.0323 46.0012 79.2175 59 95.5161 59C111.815 59 125 46.0012 125 30C125 13.9988 111.815 1 95.5161 1C79.2175 1 66.0323 13.9988 66.0323 30Z" stroke="white" stroke-width="2"/>
<path d="M98.9524 30C98.9524 46.0314 111.738 59 127.476 59C143.214 59 156 46.0314 156 30C156 13.9686 143.214 1 127.476 1C111.738 1 98.9524 13.9686 98.9524 30Z" stroke="white" stroke-width="2"/>
<path d="M129.952 30C129.952 46.0314 142.738 59 158.476 59C174.214 59 187 46.0314 187 30C187 13.9686 174.214 1 158.476 1C142.738 1 129.952 13.9686 129.952 30Z" fill="#FFCE31" stroke="white" stroke-width="2"/>
<path d="M145.774 36C145.774 35.52 145.81 35.07 145.882 34.65C145.966 34.23 146.11 33.828 146.314 33.444C146.53 33.06 146.83 32.694 147.214 32.346C147.598 31.986 148.096 31.638 148.708 31.302C149.068 31.098 149.428 30.906 149.788 30.726C150.16 30.546 150.502 30.354 150.814 30.15C151.138 29.946 151.396 29.724 151.588 29.484C151.78 29.232 151.876 28.944 151.876 28.62C151.876 28.344 151.792 28.08 151.624 27.828C151.468 27.564 151.228 27.354 150.904 27.198C150.592 27.03 150.202 26.946 149.734 26.946C149.374 26.946 149.044 26.994 148.744 27.09C148.456 27.186 148.192 27.312 147.952 27.468C147.724 27.612 147.52 27.768 147.34 27.936C147.172 28.092 147.028 28.236 146.908 28.368L145.918 27.252C146.014 27.144 146.176 27 146.404 26.82C146.632 26.628 146.92 26.436 147.268 26.244C147.616 26.052 148.018 25.89 148.474 25.758C148.942 25.614 149.452 25.542 150.004 25.542C150.748 25.542 151.384 25.674 151.912 25.938C152.452 26.19 152.866 26.538 153.154 26.982C153.442 27.414 153.586 27.9 153.586 28.44C153.586 28.908 153.484 29.316 153.28 29.664C153.088 30.012 152.836 30.318 152.524 30.582C152.224 30.846 151.906 31.074 151.57 31.266C151.246 31.446 150.952 31.602 150.688 31.734C150.148 31.998 149.686 32.238 149.302 32.454C148.918 32.67 148.6 32.886 148.348 33.102C148.108 33.306 147.91 33.522 147.754 33.75C147.61 33.978 147.502 34.248 147.43 34.56H153.784V36H145.774ZM170.077 36H168.493V30.744C168.493 29.76 168.331 29.034 168.007 28.566C167.695 28.098 167.227 27.864 166.603 27.864C165.967 27.864 165.391 28.098 164.875 28.566C164.359 29.022 163.993 29.616 163.777 30.348V36H162.193V30.744C162.193 29.748 162.037 29.022 161.725 28.566C161.413 28.098 160.945 27.864 160.321 27.864C159.697 27.864 159.121 28.092 158.593 28.548C158.077 28.992 157.711 29.586 157.495 30.33V36H155.911V26.604H157.351V28.62C157.735 27.924 158.233 27.39 158.845 27.018C159.457 26.634 160.147 26.442 160.915 26.442C161.695 26.442 162.319 26.658 162.787 27.09C163.255 27.51 163.543 28.056 163.651 28.728C164.071 27.984 164.581 27.42 165.181 27.036C165.781 26.64 166.465 26.442 167.233 26.442C167.773 26.442 168.223 26.544 168.583 26.748C168.955 26.94 169.249 27.216 169.465 27.576C169.681 27.924 169.837 28.338 169.933 28.818C170.029 29.298 170.077 29.82 170.077 30.384V36Z" fill="black"/>
<path d="M207.072 25.614C206.892 25.41 206.682 25.23 206.442 25.074C206.202 24.906 205.932 24.762 205.632 24.642C205.332 24.522 205.008 24.426 204.66 24.354C204.324 24.282 203.964 24.246 203.58 24.246C202.464 24.246 201.642 24.462 201.114 24.894C200.598 25.314 200.34 25.89 200.34 26.622C200.34 27.126 200.46 27.522 200.7 27.81C200.952 28.098 201.342 28.332 201.87 28.512C202.398 28.692 203.07 28.878 203.886 29.07C204.798 29.262 205.584 29.49 206.244 29.754C206.904 30.018 207.414 30.378 207.774 30.834C208.134 31.278 208.314 31.884 208.314 32.652C208.314 33.24 208.2 33.75 207.972 34.182C207.744 34.614 207.426 34.974 207.018 35.262C206.61 35.55 206.124 35.766 205.56 35.91C204.996 36.042 204.378 36.108 203.706 36.108C203.046 36.108 202.41 36.042 201.798 35.91C201.198 35.766 200.628 35.562 200.088 35.298C199.548 35.022 199.044 34.674 198.576 34.254L199.206 33.228C199.434 33.468 199.704 33.696 200.016 33.912C200.34 34.116 200.694 34.302 201.078 34.47C201.474 34.638 201.894 34.77 202.338 34.866C202.794 34.95 203.262 34.992 203.742 34.992C204.762 34.992 205.554 34.806 206.118 34.434C206.694 34.062 206.982 33.51 206.982 32.778C206.982 32.25 206.838 31.83 206.55 31.518C206.262 31.194 205.83 30.93 205.254 30.726C204.678 30.522 203.97 30.324 203.13 30.132C202.242 29.928 201.492 29.7 200.88 29.448C200.268 29.196 199.806 28.866 199.494 28.458C199.194 28.038 199.044 27.486 199.044 26.802C199.044 26.01 199.236 25.344 199.62 24.804C200.016 24.252 200.556 23.838 201.24 23.562C201.924 23.274 202.71 23.13 203.598 23.13C204.162 23.13 204.684 23.19 205.164 23.31C205.656 23.418 206.106 23.58 206.514 23.796C206.934 24.012 207.324 24.282 207.684 24.606L207.072 25.614ZM214.625 35.55C214.529 35.586 214.379 35.652 214.175 35.748C213.971 35.844 213.725 35.928 213.437 36C213.149 36.072 212.837 36.108 212.501 36.108C212.153 36.108 211.823 36.042 211.511 35.91C211.211 35.778 210.971 35.58 210.791 35.316C210.611 35.04 210.521 34.704 210.521 34.308V27.594H209.225V26.622H210.521V23.454H211.745V26.622H213.905V27.594H211.745V33.966C211.769 34.302 211.889 34.554 212.105 34.722C212.333 34.89 212.591 34.974 212.879 34.974C213.215 34.974 213.521 34.92 213.797 34.812C214.073 34.692 214.241 34.608 214.301 34.56L214.625 35.55ZM216.065 32.13V26.622H217.289V31.914C217.289 32.982 217.469 33.78 217.829 34.308C218.201 34.836 218.747 35.1 219.467 35.1C219.947 35.1 220.409 34.998 220.853 34.794C221.309 34.578 221.711 34.278 222.059 33.894C222.407 33.498 222.671 33.042 222.851 32.526V26.622H224.075V34.524C224.075 34.692 224.111 34.818 224.183 34.902C224.255 34.974 224.363 35.016 224.507 35.028V36C224.363 36.012 224.249 36.018 224.165 36.018C224.081 36.03 224.003 36.036 223.931 36.036C223.691 36.012 223.481 35.916 223.301 35.748C223.133 35.58 223.043 35.376 223.031 35.136L222.995 33.876C222.587 34.596 222.029 35.16 221.321 35.568C220.625 35.976 219.869 36.18 219.053 36.18C218.069 36.18 217.325 35.838 216.821 35.154C216.317 34.47 216.065 33.462 216.065 32.13ZM226.212 31.338C226.212 30.45 226.392 29.64 226.752 28.908C227.124 28.164 227.634 27.57 228.282 27.126C228.93 26.682 229.668 26.46 230.496 26.46C231.276 26.46 231.972 26.67 232.584 27.09C233.208 27.498 233.694 27.996 234.042 28.584V22.86H235.266V34.524C235.266 34.692 235.302 34.818 235.374 34.902C235.446 34.974 235.554 35.016 235.698 35.028V36C235.458 36.036 235.272 36.048 235.14 36.036C234.888 36.024 234.666 35.922 234.474 35.73C234.282 35.538 234.186 35.328 234.186 35.1V34.182C233.814 34.794 233.31 35.28 232.674 35.64C232.038 36 231.378 36.18 230.694 36.18C230.046 36.18 229.446 36.048 228.894 35.784C228.354 35.52 227.88 35.16 227.472 34.704C227.076 34.248 226.764 33.732 226.536 33.156C226.32 32.568 226.212 31.962 226.212 31.338ZM234.042 32.778V29.88C233.886 29.448 233.634 29.058 233.286 28.71C232.938 28.35 232.542 28.068 232.098 27.864C231.666 27.648 231.234 27.54 230.802 27.54C230.298 27.54 229.842 27.648 229.434 27.864C229.026 28.068 228.672 28.35 228.372 28.71C228.084 29.07 227.862 29.478 227.706 29.934C227.55 30.39 227.472 30.858 227.472 31.338C227.472 31.842 227.556 32.322 227.724 32.778C227.904 33.234 228.156 33.642 228.48 34.002C228.804 34.35 229.176 34.62 229.596 34.812C230.016 35.004 230.472 35.1 230.964 35.1C231.276 35.1 231.6 35.04 231.936 34.92C232.272 34.8 232.59 34.638 232.89 34.434C233.202 34.218 233.46 33.966 233.664 33.678C233.868 33.39 233.994 33.09 234.042 32.778ZM242.089 36.18C241.417 36.18 240.793 36.054 240.217 35.802C239.641 35.538 239.143 35.184 238.723 34.74C238.303 34.284 237.973 33.762 237.733 33.174C237.505 32.586 237.391 31.956 237.391 31.284C237.391 30.408 237.589 29.604 237.985 28.872C238.393 28.14 238.951 27.558 239.659 27.126C240.367 26.682 241.171 26.46 242.071 26.46C242.995 26.46 243.799 26.682 244.483 27.126C245.179 27.57 245.725 28.158 246.121 28.89C246.517 29.61 246.715 30.402 246.715 31.266C246.715 31.362 246.715 31.458 246.715 31.554C246.715 31.638 246.709 31.704 246.697 31.752H238.669C238.729 32.424 238.915 33.024 239.227 33.552C239.551 34.068 239.965 34.482 240.469 34.794C240.985 35.094 241.543 35.244 242.143 35.244C242.755 35.244 243.331 35.088 243.871 34.776C244.423 34.464 244.807 34.056 245.023 33.552L246.085 33.84C245.893 34.284 245.599 34.686 245.203 35.046C244.807 35.406 244.339 35.688 243.799 35.892C243.271 36.084 242.701 36.18 242.089 36.18ZM238.633 30.87H245.563C245.515 30.186 245.329 29.586 245.005 29.07C244.693 28.554 244.279 28.152 243.763 27.864C243.259 27.564 242.701 27.414 242.089 27.414C241.477 27.414 240.919 27.564 240.415 27.864C239.911 28.152 239.497 28.56 239.173 29.088C238.861 29.604 238.681 30.198 238.633 30.87ZM256.488 36H255.264V30.762C255.264 29.658 255.102 28.854 254.778 28.35C254.454 27.834 253.944 27.576 253.248 27.576C252.768 27.576 252.294 27.696 251.826 27.936C251.358 28.164 250.944 28.482 250.584 28.89C250.236 29.286 249.984 29.742 249.828 30.258V36H248.604V26.622H249.72V28.746C249.972 28.29 250.302 27.894 250.71 27.558C251.118 27.21 251.58 26.94 252.096 26.748C252.612 26.556 253.146 26.46 253.698 26.46C254.214 26.46 254.652 26.556 255.012 26.748C255.372 26.94 255.66 27.216 255.876 27.576C256.092 27.924 256.248 28.35 256.344 28.854C256.44 29.346 256.488 29.898 256.488 30.51V36ZM263.51 35.55C263.414 35.586 263.264 35.652 263.06 35.748C262.856 35.844 262.61 35.928 262.322 36C262.034 36.072 261.722 36.108 261.386 36.108C261.038 36.108 260.708 36.042 260.396 35.91C260.096 35.778 259.856 35.58 259.676 35.316C259.496 35.04 259.406 34.704 259.406 34.308V27.594H258.11V26.622H259.406V23.454H260.63V26.622H262.79V27.594H260.63V33.966C260.654 34.302 260.774 34.554 260.99 34.722C261.218 34.89 261.476 34.974 261.764 34.974C262.1 34.974 262.406 34.92 262.682 34.812C262.958 34.692 263.126 34.608 263.186 34.56L263.51 35.55ZM268.117 36.18C267.349 36.18 266.635 36.054 265.975 35.802C265.315 35.55 264.745 35.166 264.265 34.65L264.769 33.786C265.297 34.278 265.825 34.638 266.353 34.866C266.893 35.082 267.463 35.19 268.063 35.19C268.795 35.19 269.389 35.046 269.845 34.758C270.301 34.458 270.529 34.032 270.529 33.48C270.529 33.108 270.415 32.826 270.187 32.634C269.971 32.43 269.653 32.268 269.233 32.148C268.825 32.016 268.333 31.878 267.757 31.734C267.109 31.554 266.563 31.368 266.119 31.176C265.687 30.972 265.357 30.72 265.129 30.42C264.913 30.108 264.805 29.706 264.805 29.214C264.805 28.602 264.955 28.098 265.255 27.702C265.567 27.294 265.987 26.988 266.515 26.784C267.055 26.568 267.655 26.46 268.315 26.46C269.035 26.46 269.671 26.574 270.223 26.802C270.775 27.03 271.225 27.348 271.573 27.756L270.979 28.584C270.643 28.2 270.241 27.918 269.773 27.738C269.317 27.546 268.807 27.45 268.243 27.45C267.859 27.45 267.493 27.504 267.145 27.612C266.797 27.708 266.509 27.876 266.281 28.116C266.065 28.344 265.957 28.662 265.957 29.07C265.957 29.406 266.041 29.67 266.209 29.862C266.377 30.042 266.629 30.198 266.965 30.33C267.301 30.45 267.715 30.582 268.207 30.726C268.915 30.918 269.533 31.116 270.061 31.32C270.589 31.512 270.997 31.764 271.285 32.076C271.573 32.388 271.717 32.826 271.717 33.39C271.717 34.266 271.387 34.95 270.727 35.442C270.067 35.934 269.197 36.18 268.117 36.18ZM278.581 36V23.22H279.841V36H278.581ZM290.677 36H289.453V30.762C289.453 29.658 289.291 28.854 288.967 28.35C288.643 27.834 288.133 27.576 287.437 27.576C286.957 27.576 286.483 27.696 286.015 27.936C285.547 28.164 285.133 28.482 284.773 28.89C284.425 29.286 284.173 29.742 284.017 30.258V36H282.793V26.622H283.909V28.746C284.161 28.29 284.491 27.894 284.899 27.558C285.307 27.21 285.769 26.94 286.285 26.748C286.801 26.556 287.335 26.46 287.887 26.46C288.403 26.46 288.841 26.556 289.201 26.748C289.561 26.94 289.849 27.216 290.065 27.576C290.281 27.924 290.437 28.35 290.533 28.854C290.629 29.346 290.677 29.898 290.677 30.51V36ZM297.968 27.702C297.152 27.726 296.432 27.954 295.808 28.386C295.196 28.818 294.764 29.412 294.512 30.168V36H293.288V26.622H294.44V28.872C294.764 28.212 295.19 27.678 295.718 27.27C296.258 26.862 296.828 26.634 297.428 26.586C297.548 26.574 297.65 26.568 297.734 26.568C297.83 26.568 297.908 26.574 297.968 26.586V27.702ZM303.295 36.18C302.623 36.18 301.999 36.054 301.423 35.802C300.859 35.538 300.367 35.184 299.947 34.74C299.539 34.284 299.221 33.768 298.993 33.192C298.765 32.604 298.651 31.986 298.651 31.338C298.651 30.666 298.765 30.042 298.993 29.466C299.221 28.878 299.545 28.362 299.965 27.918C300.385 27.462 300.877 27.108 301.441 26.856C302.017 26.592 302.641 26.46 303.313 26.46C303.985 26.46 304.603 26.592 305.167 26.856C305.731 27.108 306.223 27.462 306.643 27.918C307.063 28.362 307.387 28.878 307.615 29.466C307.843 30.042 307.957 30.666 307.957 31.338C307.957 31.986 307.843 32.604 307.615 33.192C307.387 33.768 307.063 34.284 306.643 34.74C306.235 35.184 305.743 35.538 305.167 35.802C304.603 36.054 303.979 36.18 303.295 36.18ZM299.893 31.356C299.893 32.052 300.043 32.688 300.343 33.264C300.655 33.828 301.069 34.278 301.585 34.614C302.101 34.938 302.671 35.1 303.295 35.1C303.919 35.1 304.489 34.932 305.005 34.596C305.521 34.26 305.935 33.804 306.247 33.228C306.559 32.64 306.715 32.004 306.715 31.32C306.715 30.624 306.559 29.988 306.247 29.412C305.935 28.836 305.521 28.38 305.005 28.044C304.489 27.708 303.919 27.54 303.295 27.54C302.671 27.54 302.101 27.714 301.585 28.062C301.081 28.41 300.673 28.872 300.361 29.448C300.049 30.012 299.893 30.648 299.893 31.356ZM310.058 22.86H311.282V33.876C311.282 34.344 311.366 34.65 311.534 34.794C311.702 34.938 311.906 35.01 312.146 35.01C312.362 35.01 312.578 34.986 312.794 34.938C313.01 34.89 313.196 34.842 313.352 34.794L313.568 35.784C313.34 35.88 313.058 35.958 312.722 36.018C312.398 36.078 312.116 36.108 311.876 36.108C311.324 36.108 310.88 35.946 310.544 35.622C310.22 35.298 310.058 34.854 310.058 34.29V22.86ZM314.963 22.86H316.187V33.876C316.187 34.344 316.271 34.65 316.439 34.794C316.607 34.938 316.811 35.01 317.051 35.01C317.267 35.01 317.483 34.986 317.699 34.938C317.915 34.89 318.101 34.842 318.257 34.794L318.473 35.784C318.245 35.88 317.963 35.958 317.627 36.018C317.303 36.078 317.021 36.108 316.781 36.108C316.229 36.108 315.785 35.946 315.449 35.622C315.125 35.298 314.963 34.854 314.963 34.29V22.86Z" fill="black"/>
</svg>
